<?xml version="1.0" standalone="no"?><!DOCTYPE svg PUBLIC "-//W3C//DTD SVG 1.1//EN" "http://www.w3.org/Graphics/SVG/1.1/DTD/svg11.dtd"><svg height="1024" node-id="1" sillyvg="true" template-height="1024" template-width="1024" version="1.1" viewBox="0 0 1024 1024" width="1024" xmlns="http://www.w3.org/2000/svg" xmlns:xlink="http://www.w3.org/1999/xlink"><defs node-id="90"></defs><path d="M 300.40 168.50 L 141.90 168.50 L 141.90 327.00 L 194.80 327.00 L 194.80 379.80 L 141.90 379.80 L 141.90 643.90 L 194.80 643.90 L 194.80 749.50 L 300.40 749.50 L 300.40 802.30 L 353.20 802.30 L 353.20 855.10 L 670.10 855.10 L 670.10 802.30 L 722.90 802.30 L 722.90 749.50 L 828.50 749.50 L 828.50 643.90 L 881.30 643.90 L 881.30 379.80 L 828.50 379.80 L 828.50 327.00 L 881.30 327.00 L 881.30 168.50 L 722.90 168.50 L 722.90 221.30 L 300.40 221.30 Z" fill="#e7dac5" fill-rule="nonzero" node-id="92" stroke="none" target-height="686.6" target-width="739.4" target-x="141.9" target-y="168.5"></path><path d="M 141.90 115.70 L 194.70 115.70 L 194.70 168.50 L 141.90 168.50 Z" fill="#472712" fill-rule="nonzero" node-id="94" stroke="none" target-height="52.800003" target-width="52.800003" target-x="141.9" target-y="115.7"></path><path d="M 89.10 168.50 L 141.90 168.50 L 141.90 221.30 L 89.10 221.30 Z" fill="#472712" fill-rule="nonzero" node-id="96" stroke="none" target-height="52.800003" target-width="52.799995" target-x="89.1" target-y="168.5"></path><path d="M 89.10 221.30 L 141.90 221.30 L 141.90 274.20 L 89.10 274.20 Z" fill="#472712" fill-rule="nonzero" node-id="98" stroke="none" target-height="52.90001" target-width="52.799995" target-x="89.1" target-y="221.3"></path><path d="M 89.10 274.20 L 141.90 274.20 L 141.90 327.00 L 89.10 327.00 Z" fill="#472712" fill-rule="nonzero" node-id="100" stroke="none" target-height="52.799988" target-width="52.799995" target-x="89.1" target-y="274.2"></path><path d="M 881.30 221.30 L 934.20 221.30 L 934.20 274.20 L 881.30 274.20 Z" fill="#472712" fill-rule="nonzero" node-id="102" stroke="none" target-height="52.90001" target-width="52.900024" target-x="881.3" target-y="221.3"></path><path d="M 881.30 274.20 L 934.20 274.20 L 934.20 327.00 L 881.30 327.00 Z" fill="#472712" fill-rule="nonzero" node-id="104" stroke="none" target-height="52.799988" target-width="52.900024" target-x="881.3" target-y="274.2"></path><path d="M 141.90 327.00 L 194.70 327.00 L 194.70 379.80 L 141.90 379.80 Z" fill="#472712" fill-rule="nonzero" node-id="106" stroke="none" target-height="52.799988" target-width="52.800003" target-x="141.9" target-y="327"></path><path d="M 828.50 327.00 L 881.30 327.00 L 881.30 379.80 L 828.50 379.80 Z" fill="#472712" fill-rule="nonzero" node-id="108" stroke="none" target-height="52.799988" target-width="52.799988" target-x="828.5" target-y="327"></path><path d="M 89.10 379.80 L 141.90 379.80 L 141.90 432.60 L 89.10 432.60 Z" fill="#472712" fill-rule="nonzero" node-id="110" stroke="none" target-height="52.80002" target-width="52.799995" target-x="89.1" target-y="379.8"></path><path d="M 89.10 432.60 L 141.90 432.60 L 141.90 485.40 L 89.10 485.40 Z" fill="#472712" fill-rule="nonzero" node-id="112" stroke="none" target-height="52.799988" target-width="52.799995" target-x="89.1" target-y="432.6"></path><path d="M 357.60 432.60 L 410.40 432.60 L 410.40 485.40 L 357.60 485.40 Z" fill="#fdfdfb" fill-rule="nonzero" node-id="114" stroke="none" target-height="52.799988" target-width="52.799988" target-x="357.6" target-y="432.6"></path><path d="M 304.80 432.60 L 357.60 432.60 L 357.60 485.40 L 304.80 485.40 Z" fill="#472712" fill-rule="nonzero" node-id="116" stroke="none" target-height="52.799988" target-width="52.80002" target-x="304.8" target-y="432.6"></path><path d="M 357.60 485.40 L 410.40 485.40 L 410.40 538.20 L 357.60 538.20 Z" fill="#472712" fill-rule="nonzero" node-id="118" stroke="none" target-height="52.80002" target-width="52.799988" target-x="357.6" target-y="485.4"></path><path d="M 304.80 485.40 L 357.60 485.40 L 357.60 538.20 L 304.80 538.20 Z" fill="#472712" fill-rule="nonzero" node-id="120" stroke="none" target-height="52.80002" target-width="52.80002" target-x="304.8" target-y="485.4"></path><path d="M 670.10 432.60 L 722.90 432.60 L 722.90 485.40 L 670.10 485.40 Z" fill="#fdfdfb" fill-rule="nonzero" node-id="122" stroke="none" target-height="52.799988" target-width="52.80005" target-x="670.1" target-y="432.6"></path><path d="M 617.30 432.60 L 670.10 432.60 L 670.10 485.40 L 617.30 485.40 Z" fill="#472712" fill-rule="nonzero" node-id="124" stroke="none" target-height="52.799988" target-width="52.799988" target-x="617.3" target-y="432.6"></path><path d="M 670.10 485.40 L 722.90 485.40 L 722.90 538.20 L 670.10 538.20 Z" fill="#472712" fill-rule="nonzero" node-id="126" stroke="none" target-height="52.80002" target-width="52.80005" target-x="670.1" target-y="485.4"></path><path d="M 617.30 485.40 L 670.10 485.40 L 670.10 538.20 L 617.30 538.20 Z" fill="#472712" fill-rule="nonzero" node-id="128" stroke="none" target-height="52.80002" target-width="52.799988" target-x="617.3" target-y="485.4"></path><path d="M 89.10 485.40 L 141.90 485.40 L 141.90 538.20 L 89.10 538.20 Z" fill="#472712" fill-rule="nonzero" node-id="130" stroke="none" target-height="52.80002" target-width="52.799995" target-x="89.1" target-y="485.4"></path><path d="M 89.10 538.20 L 141.90 538.20 L 141.90 591.10 L 89.10 591.10 Z" fill="#472712" fill-rule="nonzero" node-id="132" stroke="none" target-height="52.899963" target-width="52.799995" target-x="89.1" target-y="538.2"></path><path d="M 89.10 591.10 L 141.90 591.10 L 141.90 643.90 L 89.10 643.90 Z" fill="#472712" fill-rule="nonzero" node-id="134" stroke="none" target-height="52.80005" target-width="52.799995" target-x="89.1" target-y="591.1"></path><path d="M 881.30 379.80 L 934.20 379.80 L 934.20 432.60 L 881.30 432.60 Z" fill="#472712" fill-rule="nonzero" node-id="136" stroke="none" target-height="52.80002" target-width="52.900024" target-x="881.3" target-y="379.8"></path><path d="M 881.30 432.60 L 934.20 432.60 L 934.20 485.40 L 881.30 485.40 Z" fill="#472712" fill-rule="nonzero" node-id="138" stroke="none" target-height="52.799988" target-width="52.900024" target-x="881.3" target-y="432.6"></path><path d="M 881.30 485.40 L 934.20 485.40 L 934.20 538.20 L 881.30 538.20 Z" fill="#472712" fill-rule="nonzero" node-id="140" stroke="none" target-height="52.80002" target-width="52.900024" target-x="881.3" target-y="485.4"></path><path d="M 881.30 538.20 L 934.20 538.20 L 934.20 591.10 L 881.30 591.10 Z" fill="#472712" fill-rule="nonzero" node-id="142" stroke="none" target-height="52.899963" target-width="52.900024" target-x="881.3" target-y="538.2"></path><path d="M 881.30 591.10 L 934.20 591.10 L 934.20 643.90 L 881.30 643.90 Z" fill="#472712" fill-rule="nonzero" node-id="144" stroke="none" target-height="52.80005" target-width="52.900024" target-x="881.3" target-y="591.1"></path><path d="M 141.90 643.90 L 194.70 643.90 L 194.70 696.70 L 141.90 696.70 Z" fill="#472712" fill-rule="nonzero" node-id="146" stroke="none" target-height="52.799988" target-width="52.800003" target-x="141.9" target-y="643.9"></path><path d="M 141.90 696.70 L 194.70 696.70 L 194.70 749.50 L 141.90 749.50 Z" fill="#472712" fill-rule="nonzero" node-id="148" stroke="none" target-height="52.799988" target-width="52.800003" target-x="141.9" target-y="696.7"></path><path d="M 828.50 643.90 L 881.30 643.90 L 881.30 696.70 L 828.50 696.70 Z" fill="#472712" fill-rule="nonzero" node-id="150" stroke="none" target-height="52.799988" target-width="52.799988" target-x="828.5" target-y="643.9"></path><path d="M 828.50 696.70 L 881.30 696.70 L 881.30 749.50 L 828.50 749.50 Z" fill="#472712" fill-rule="nonzero" node-id="152" stroke="none" target-height="52.799988" target-width="52.799988" target-x="828.5" target-y="696.7"></path><path d="M 194.80 749.50 L 247.60 749.50 L 247.60 802.30 L 194.80 802.30 Z" fill="#472712" fill-rule="nonzero" node-id="154" stroke="none" target-height="52.799988" target-width="52.800003" target-x="194.8" target-y="749.5"></path><path d="M 247.60 749.50 L 300.40 749.50 L 300.40 802.30 L 247.60 802.30 Z" fill="#472712" fill-rule="nonzero" node-id="156" stroke="none" target-height="52.799988" target-width="52.799988" target-x="247.6" target-y="749.5"></path><path d="M 722.90 749.50 L 775.70 749.50 L 775.70 802.30 L 722.90 802.30 Z" fill="#472712" fill-rule="nonzero" node-id="158" stroke="none" target-height="52.799988" target-width="52.799988" target-x="722.9" target-y="749.5"></path><path d="M 775.70 749.50 L 828.50 749.50 L 828.50 802.30 L 775.70 802.30 Z" fill="#472712" fill-rule="nonzero" node-id="160" stroke="none" target-height="52.799988" target-width="52.799988" target-x="775.7" target-y="749.5"></path><path d="M 300.40 802.30 L 353.20 802.30 L 353.20 855.10 L 300.40 855.10 Z" fill="#472712" fill-rule="nonzero" node-id="162" stroke="none" target-height="52.799988" target-width="52.80002" target-x="300.4" target-y="802.3"></path><path d="M 353.20 855.10 L 406.00 855.10 L 406.00 907.90 L 353.20 907.90 Z" fill="#472712" fill-rule="nonzero" node-id="164" stroke="none" target-height="52.80005" target-width="52.799988" target-x="353.2" target-y="855.1"></path><path d="M 406.00 855.10 L 458.80 855.10 L 458.80 907.90 L 406.00 907.90 Z" fill="#472712" fill-rule="nonzero" node-id="166" stroke="none" target-height="52.80005" target-width="52.799988" target-x="406" target-y="855.1"></path><path d="M 458.80 855.10 L 511.60 855.10 L 511.60 907.90 L 458.80 907.90 Z" fill="#472712" fill-rule="nonzero" node-id="168" stroke="none" target-height="52.80005" target-width="52.80002" target-x="458.8" target-y="855.1"></path><path d="M 511.60 855.10 L 564.50 855.10 L 564.50 907.90 L 511.60 907.90 Z" fill="#472712" fill-rule="nonzero" node-id="170" stroke="none" target-height="52.80005" target-width="52.899994" target-x="511.6" target-y="855.1"></path><path d="M 564.50 855.10 L 617.30 855.10 L 617.30 907.90 L 564.50 907.90 Z" fill="#472712" fill-rule="nonzero" node-id="172" stroke="none" target-height="52.80005" target-width="52.799988" target-x="564.5" target-y="855.1"></path><path d="M 617.30 855.10 L 670.10 855.10 L 670.10 907.90 L 617.30 907.90 Z" fill="#472712" fill-rule="nonzero" node-id="174" stroke="none" target-height="52.80005" target-width="52.799988" target-x="617.3" target-y="855.1"></path><path d="M 670.10 802.30 L 722.90 802.30 L 722.90 855.10 L 670.10 855.10 Z" fill="#472712" fill-rule="nonzero" node-id="176" stroke="none" target-height="52.799988" target-width="52.80005" target-x="670.1" target-y="802.3"></path><path d="M 194.80 115.70 L 247.60 115.70 L 247.60 168.50 L 194.80 168.50 Z" fill="#472712" fill-rule="nonzero" node-id="178" stroke="none" target-height="52.800003" target-width="52.800003" target-x="194.8" target-y="115.7"></path><path d="M 247.60 221.30 L 300.40 221.30 L 300.40 274.10 L 247.60 274.10 Z" fill="#fdfdfb" fill-rule="nonzero" node-id="180" stroke="none" target-height="52.800003" target-width="52.799988" target-x="247.6" target-y="221.3"></path><path d="M 194.80 221.30 L 247.60 221.30 L 247.60 274.10 L 194.80 274.10 Z" fill="#fdfdfb" fill-rule="nonzero" node-id="182" stroke="none" target-height="52.800003" target-width="52.800003" target-x="194.8" target-y="221.3"></path><path d="M 194.80 274.20 L 247.60 274.20 L 247.60 327.00 L 194.80 327.00 Z" fill="#fdfdfb" fill-rule="nonzero" node-id="184" stroke="none" target-height="52.799988" target-width="52.800003" target-x="194.8" target-y="274.2"></path><g node-id="271"><path d="M 775.70 274.20 L 722.90 274.20 L 722.90 221.30 L 775.70 221.30 Z" fill="#fdfdfb" fill-rule="nonzero" group-id="1" node-id="188" stroke="none" target-height="52.90001" target-width="52.799988" target-x="722.9" target-y="221.3"></path></g><g node-id="272"><path d="M 828.50 274.20 L 775.70 274.20 L 775.70 221.30 L 828.50 221.30 Z" fill="#fdfdfb" fill-rule="nonzero" group-id="2" node-id="193" stroke="none" target-height="52.90001" target-width="52.799988" target-x="775.7" target-y="221.3"></path></g><g node-id="273"><path d="M 828.50 327.00 L 775.70 327.00 L 775.70 274.20 L 828.50 274.20 Z" fill="#fdfdfb" fill-rule="nonzero" group-id="3" node-id="198" stroke="none" target-height="52.799988" target-width="52.799988" target-x="775.7" target-y="274.2"></path></g><path d="M 247.60 115.70 L 300.40 115.70 L 300.40 168.50 L 247.60 168.50 Z" fill="#472712" fill-rule="nonzero" node-id="201" stroke="none" target-height="52.800003" target-width="52.799988" target-x="247.6" target-y="115.7"></path><path d="M 300.40 168.50 L 353.20 168.50 L 353.20 221.30 L 300.40 221.30 Z" fill="#472712" fill-rule="nonzero" node-id="203" stroke="none" target-height="52.800003" target-width="52.80002" target-x="300.4" target-y="168.5"></path><path d="M 353.20 168.50 L 406.00 168.50 L 406.00 221.30 L 353.20 221.30 Z" fill="#472712" fill-rule="nonzero" node-id="205" stroke="none" target-height="52.800003" target-width="52.799988" target-x="353.2" target-y="168.5"></path><path d="M 353.20 221.30 L 406.00 221.30 L 406.00 274.20 L 353.20 274.20 Z" fill="#472712" fill-rule="nonzero" node-id="207" stroke="none" target-height="52.90001" target-width="52.799988" target-x="353.2" target-y="221.3"></path><path d="M 353.20 274.20 L 406.00 274.20 L 406.00 327.00 L 353.20 327.00 Z" fill="#472712" fill-rule="nonzero" node-id="209" stroke="none" target-height="52.799988" target-width="52.799988" target-x="353.2" target-y="274.2"></path><path d="M 406.00 168.50 L 458.80 168.50 L 458.80 221.30 L 406.00 221.30 Z" fill="#472712" fill-rule="nonzero" node-id="211" stroke="none" target-height="52.800003" target-width="52.799988" target-x="406" target-y="168.5"></path><path d="M 458.80 168.50 L 511.60 168.50 L 511.60 221.30 L 458.80 221.30 Z" fill="#472712" fill-rule="nonzero" node-id="213" stroke="none" target-height="52.800003" target-width="52.80002" target-x="458.8" target-y="168.5"></path><path d="M 511.60 168.50 L 564.50 168.50 L 564.50 221.30 L 511.60 221.30 Z" fill="#472712" fill-rule="nonzero" node-id="215" stroke="none" target-height="52.800003" target-width="52.899994" target-x="511.6" target-y="168.5"></path><path d="M 485.20 221.30 L 538.00 221.30 L 538.00 274.10 L 485.20 274.10 Z" fill="#472712" fill-rule="nonzero" node-id="217" stroke="none" target-height="52.800003" target-width="52.799988" target-x="485.2" target-y="221.3"></path><path d="M 485.20 273.50 L 538.00 273.50 L 538.00 326.30 L 485.20 326.30 Z" fill="#472712" fill-rule="nonzero" node-id="219" stroke="none" target-height="52.799988" target-width="52.799988" target-x="485.2" target-y="273.5"></path><path d="M 485.20 326.30 L 538.00 326.30 L 538.00 379.10 L 485.20 379.10 Z" fill="#472712" fill-rule="nonzero" node-id="221" stroke="none" target-height="52.80002" target-width="52.799988" target-x="485.2" target-y="326.3"></path><path d="M 462.90 538.20 L 515.70 538.20 L 515.70 591.10 L 462.90 591.10 Z" fill="#472712" fill-rule="nonzero" node-id="223" stroke="none" target-height="52.899963" target-width="52.80002" target-x="462.9" target-y="538.2"></path><path d="M 515.70 538.20 L 568.50 538.20 L 568.50 591.10 L 515.70 591.10 Z" fill="#472712" fill-rule="nonzero" node-id="225" stroke="none" target-height="52.899963" target-width="52.799988" target-x="515.7" target-y="538.2"></path><path d="M 723.00 577.50 L 775.80 577.50 L 775.80 630.30 L 723.00 630.30 Z" fill="#472712" fill-rule="nonzero" node-id="227" stroke="none" target-height="52.799988" target-width="52.799988" target-x="723" target-y="577.5"></path><path d="M 775.60 577.50 L 828.50 577.50 L 828.50 630.30 L 775.60 630.30 Z" fill="#472712" fill-rule="nonzero" node-id="229" stroke="none" target-height="52.799988" target-width="52.900024" target-x="775.6" target-y="577.5"></path><path d="M 723.00 636.80 L 775.80 636.80 L 775.80 689.60 L 723.00 689.60 Z" fill="#472712" fill-rule="nonzero" node-id="231" stroke="none" target-height="52.799988" target-width="52.799988" target-x="723" target-y="636.8"></path><path d="M 775.60 636.80 L 828.50 636.80 L 828.50 689.60 L 775.60 689.60 Z" fill="#472712" fill-rule="nonzero" node-id="233" stroke="none" target-height="52.799988" target-width="52.900024" target-x="775.6" target-y="636.8"></path><path d="M 194.80 577.50 L 247.60 577.50 L 247.60 630.30 L 194.80 630.30 Z" fill="#472712" fill-rule="nonzero" node-id="235" stroke="none" target-height="52.799988" target-width="52.800003" target-x="194.8" target-y="577.5"></path><path d="M 247.50 577.50 L 300.30 577.50 L 300.30 630.30 L 247.50 630.30 Z" fill="#472712" fill-rule="nonzero" node-id="237" stroke="none" target-height="52.799988" target-width="52.799988" target-x="247.5" target-y="577.5"></path><path d="M 194.80 636.80 L 247.60 636.80 L 247.60 689.60 L 194.80 689.60 Z" fill="#472712" fill-rule="nonzero" node-id="239" stroke="none" target-height="52.799988" target-width="52.800003" target-x="194.8" target-y="636.8"></path><path d="M 247.50 636.80 L 300.30 636.80 L 300.30 689.60 L 247.50 689.60 Z" fill="#472712" fill-rule="nonzero" node-id="241" stroke="none" target-height="52.799988" target-width="52.799988" target-x="247.5" target-y="636.8"></path><path d="M 489.30 591.10 L 542.10 591.10 L 542.10 643.90 L 489.30 643.90 Z" fill="#472712" fill-rule="nonzero" node-id="243" stroke="none" target-height="52.80005" target-width="52.799988" target-x="489.3" target-y="591.1"></path><path d="M 436.50 643.90 L 489.30 643.90 L 489.30 696.70 L 436.50 696.70 Z" fill="#472712" fill-rule="nonzero" node-id="245" stroke="none" target-height="52.799988" target-width="52.799988" target-x="436.5" target-y="643.9"></path><path d="M 542.10 643.90 L 594.90 643.90 L 594.90 696.70 L 542.10 696.70 Z" fill="#472712" fill-rule="nonzero" node-id="247" stroke="none" target-height="52.799988" target-width="52.80005" target-x="542.1" target-y="643.9"></path><path d="M 594.90 591.10 L 647.80 591.10 L 647.80 643.90 L 594.90 643.90 Z" fill="#472712" fill-rule="nonzero" node-id="249" stroke="none" target-height="52.80005" target-width="52.899963" target-x="594.9" target-y="591.1"></path><path d="M 383.70 591.10 L 436.50 591.10 L 436.50 643.90 L 383.70 643.90 Z" fill="#472712" fill-rule="nonzero" node-id="251" stroke="none" target-height="52.80005" target-width="52.799988" target-x="383.7" target-y="591.1"></path><path d="M 564.50 168.50 L 617.30 168.50 L 617.30 221.30 L 564.50 221.30 Z" fill="#472712" fill-rule="nonzero" node-id="253" stroke="none" target-height="52.800003" target-width="52.799988" target-x="564.5" target-y="168.5"></path><path d="M 617.30 168.50 L 670.10 168.50 L 670.10 221.30 L 617.30 221.30 Z" fill="#472712" fill-rule="nonzero" node-id="255" stroke="none" target-height="52.800003" target-width="52.799988" target-x="617.3" target-y="168.5"></path><path d="M 617.30 221.30 L 670.10 221.30 L 670.10 274.10 L 617.30 274.10 Z" fill="#472712" fill-rule="nonzero" node-id="257" stroke="none" target-height="52.800003" target-width="52.799988" target-x="617.3" target-y="221.3"></path><path d="M 617.30 274.20 L 670.10 274.20 L 670.10 327.00 L 617.30 327.00 Z" fill="#472712" fill-rule="nonzero" node-id="259" stroke="none" target-height="52.799988" target-width="52.799988" target-x="617.3" target-y="274.2"></path><path d="M 670.10 168.50 L 722.90 168.50 L 722.90 221.30 L 670.10 221.30 Z" fill="#472712" fill-rule="nonzero" node-id="261" stroke="none" target-height="52.800003" target-width="52.80005" target-x="670.1" target-y="168.5"></path><path d="M 722.90 115.70 L 775.70 115.70 L 775.70 168.50 L 722.90 168.50 Z" fill="#472712" fill-rule="nonzero" node-id="263" stroke="none" target-height="52.800003" target-width="52.799988" target-x="722.9" target-y="115.7"></path><path d="M 775.70 115.70 L 828.50 115.70 L 828.50 168.50 L 775.70 168.50 Z" fill="#472712" fill-rule="nonzero" node-id="265" stroke="none" target-height="52.800003" target-width="52.799988" target-x="775.7" target-y="115.7"></path><path d="M 828.50 115.70 L 881.30 115.70 L 881.30 168.50 L 828.50 168.50 Z" fill="#472712" fill-rule="nonzero" node-id="267" stroke="none" target-height="52.800003" target-width="52.799988" target-x="828.5" target-y="115.7"></path><path d="M 881.30 168.50 L 934.20 168.50 L 934.20 221.30 L 881.30 221.30 Z" fill="#472712" fill-rule="nonzero" node-id="269" stroke="none" target-height="52.800003" target-width="52.900024" target-x="881.3" target-y="168.5"></path></svg>