<?xml version="1.0" standalone="no"?><!DOCTYPE svg PUBLIC "-//W3C//DTD SVG 1.1//EN" "http://www.w3.org/Graphics/SVG/1.1/DTD/svg11.dtd"><svg height="1024" node-id="1" sillyvg="true" template-height="1024" template-width="1024" version="1.1" viewBox="0 0 1024 1024" width="1024" xmlns="http://www.w3.org/2000/svg" xmlns:xlink="http://www.w3.org/1999/xlink"><defs node-id="29"></defs><g node-id="76"><g node-id="77"><path d="M 510.00 228.40 L 496.50 228.80 L 483.30 229.70 L 470.30 231.20 L 457.50 233.30 L 445.00 235.90 L 432.50 239.20 L 420.30 242.90 L 408.40 247.20 L 396.70 252.00 L 385.30 257.30 L 374.10 263.10 L 363.30 269.30 L 352.70 276.00 L 342.50 283.10 L 332.60 290.70 L 323.10 298.80 L 313.90 307.10 L 305.10 315.90 L 296.80 325.10 L 288.70 334.60 L 281.10 344.50 L 274.00 354.70 L 267.30 365.30 L 261.10 376.10 L 255.30 387.30 L 250.00 398.70 L 245.20 410.40 L 240.90 422.30 L 237.20 434.50 L 233.90 447.00 L 231.30 459.50 L 229.20 472.30 L 227.70 485.30 L 226.80 498.50 L 226.40 512.00 L 226.80 525.50 L 227.70 538.70 L 229.20 551.70 L 231.30 564.50 L 233.90 577.00 L 237.20 589.50 L 240.90 601.70 L 245.20 613.60 L 250.00 625.30 L 255.30 636.70 L 261.10 647.90 L 267.30 658.70 L 274.00 669.30 L 281.10 679.50 L 288.70 689.40 L 296.80 698.90 L 305.10 708.10 L 313.90 716.90 L 323.10 725.20 L 332.60 733.30 L 342.50 740.90 L 352.70 748.00 L 363.30 754.70 L 374.10 760.90 L 385.30 766.70 L 396.70 772.00 L 408.40 776.80 L 420.30 781.10 L 432.50 784.80 L 445.00 788.10 L 457.50 790.70 L 470.30 792.80 L 483.30 794.30 L 496.50 795.20 L 510.00 795.60 L 523.50 795.20 L 536.70 794.30 L 549.70 792.80 L 562.50 790.70 L 575.00 788.10 L 587.50 784.80 L 599.70 781.10 L 611.60 776.80 L 623.30 772.00 L 634.70 766.70 L 645.90 760.90 L 656.70 754.70 L 667.30 748.00 L 677.50 740.90 L 687.40 733.30 L 696.90 725.20 L 706.10 716.90 L 714.90 708.10 L 723.20 698.90 L 731.30 689.40 L 738.90 679.50 L 746.00 669.30 L 752.70 658.70 L 758.90 647.90 L 764.70 636.70 L 770.00 625.30 L 774.80 613.60 L 779.10 601.70 L 782.80 589.50 L 786.10 577.00 L 788.70 564.50 L 790.80 551.70 L 792.30 538.70 L 793.20 525.50 L 793.60 512.00 L 793.20 498.50 L 792.30 485.30 L 790.80 472.30 L 788.70 459.50 L 786.10 447.00 L 782.80 434.50 L 779.10 422.30 L 774.80 410.40 L 770.00 398.70 L 764.70 387.30 L 758.90 376.10 L 752.70 365.30 L 746.00 354.70 L 738.90 344.50 L 731.30 334.60 L 723.20 325.10 L 714.90 315.90 L 706.10 307.10 L 696.90 298.80 L 687.40 290.70 L 677.50 283.10 L 667.30 276.00 L 656.70 269.30 L 645.90 263.10 L 634.70 257.30 L 623.30 252.00 L 611.60 247.20 L 599.70 242.90 L 587.50 239.20 L 575.00 235.90 L 562.50 233.30 L 549.70 231.20 L 536.70 229.70 L 523.50 228.80 L 510.00 228.40 Z M 516.90 572.70 L 498.80 571.90 L 481.80 569.60 L 465.40 565.90 L 450.30 561.00 L 443.00 558.00 L 436.20 554.80 L 423.80 547.60 L 417.90 543.50 L 412.60 539.30 L 407.80 534.90 L 403.40 530.30 L 403.70 522.80 L 404.50 517.20 L 406.00 511.80 L 408.00 506.40 L 410.50 501.20 L 413.50 496.20 L 417.10 491.30 L 421.10 486.40 L 425.50 482.00 L 430.40 477.70 L 435.70 473.50 L 441.50 469.50 L 453.90 462.60 L 460.70 459.40 L 467.90 456.50 L 482.80 451.70 L 499.10 448.10 L 507.40 446.80 L 524.70 445.30 L 533.80 445.10 L 543.00 445.30 L 560.50 446.90 L 577.30 449.90 L 585.30 451.90 L 600.40 456.80 L 607.70 459.80 L 620.90 466.50 L 626.90 470.20 L 632.80 474.30 L 638.10 478.50 L 642.90 482.90 L 647.30 487.50 L 647.00 495.00 L 646.20 500.60 L 644.70 506.00 L 642.70 511.40 L 640.20 516.60 L 637.20 521.60 L 633.60 526.50 L 629.60 531.40 L 625.20 535.80 L 620.30 540.10 L 615.00 544.30 L 609.20 548.30 L 603.20 551.80 L 590.00 558.40 L 582.80 561.30 L 567.90 566.10 L 559.90 568.10 L 543.30 571.00 L 534.80 571.90 L 516.90 572.70 Z" fill="#f5af65" fill-rule="nonzero" group-id="1,2" node-id="36" stroke="none" target-height="567.19995" target-width="567.19995" target-x="226.4" target-y="228.4"></path><path d="M 510.00 228.40 L 496.50 228.80 L 483.30 229.70 L 470.30 231.20 L 457.50 233.30 L 445.00 235.90 L 432.50 239.20 L 420.30 242.90 L 408.40 247.20 L 396.70 252.00 L 385.30 257.30 L 374.10 263.10 L 363.30 269.30 L 352.70 276.00 L 342.50 283.10 L 332.60 290.70 L 323.10 298.80 L 313.90 307.10 L 305.10 315.90 L 296.80 325.10 L 288.70 334.60 L 281.10 344.50 L 274.00 354.70 L 267.30 365.30 L 261.10 376.10 L 255.30 387.30 L 250.00 398.70 L 245.20 410.40 L 240.90 422.30 L 237.20 434.50 L 233.90 447.00 L 231.30 459.50 L 229.20 472.30 L 227.70 485.30 L 226.80 498.50 L 226.40 512.00 L 226.80 525.50 L 227.70 538.70 L 229.20 551.70 L 231.30 564.50 L 233.90 577.00 L 237.20 589.50 L 240.90 601.70 L 245.20 613.60 L 250.00 625.30 L 255.30 636.70 L 261.10 647.90 L 267.30 658.70 L 274.00 669.30 L 281.10 679.50 L 288.70 689.40 L 296.80 698.90 L 305.10 708.10 L 313.90 716.90 L 323.10 725.20 L 332.60 733.30 L 342.50 740.90 L 352.70 748.00 L 363.30 754.70 L 374.10 760.90 L 385.30 766.70 L 396.70 772.00 L 408.40 776.80 L 420.30 781.10 L 432.50 784.80 L 445.00 788.10 L 457.50 790.70 L 470.30 792.80 L 483.30 794.30 L 496.50 795.20 L 510.00 795.60 L 523.50 795.20 L 536.70 794.30 L 549.70 792.80 L 562.50 790.70 L 575.00 788.10 L 587.50 784.80 L 599.70 781.10 L 611.60 776.80 L 623.30 772.00 L 634.70 766.70 L 645.90 760.90 L 656.70 754.70 L 667.30 748.00 L 677.50 740.90 L 687.40 733.30 L 696.90 725.20 L 706.10 716.90 L 714.90 708.10 L 723.20 698.90 L 731.30 689.40 L 738.90 679.50 L 746.00 669.30 L 752.70 658.70 L 758.90 647.90 L 764.70 636.70 L 770.00 625.30 L 774.80 613.60 L 779.10 601.70 L 782.80 589.50 L 786.10 577.00 L 788.70 564.50 L 790.80 551.70 L 792.30 538.70 L 793.20 525.50 L 793.60 512.00 L 793.20 498.50 L 792.30 485.30 L 790.80 472.30 L 788.70 459.50 L 786.10 447.00 L 782.80 434.50 L 779.10 422.30 L 774.80 410.40 L 770.00 398.70 L 764.70 387.30 L 758.90 376.10 L 752.70 365.30 L 746.00 354.70 L 738.90 344.50 L 731.30 334.60 L 723.20 325.10 L 714.90 315.90 L 706.10 307.10 L 696.90 298.80 L 687.40 290.70 L 677.50 283.10 L 667.30 276.00 L 656.70 269.30 L 645.90 263.10 L 634.70 257.30 L 623.30 252.00 L 611.60 247.20 L 599.70 242.90 L 587.50 239.20 L 575.00 235.90 L 562.50 233.30 L 549.70 231.20 L 536.70 229.70 L 523.50 228.80 L 510.00 228.40 Z" fill="none" group-id="1,2" node-id="38" stroke="#523510" stroke-linecap="butt" stroke-width="14.15" target-height="567.19995" target-width="567.19995" target-x="226.4" target-y="228.4"></path><path d="M 503.00 238.00 L 490.00 239.00 L 477.40 240.50 L 465.10 242.40 L 453.10 244.60 L 441.30 247.30 L 429.60 250.40 L 418.10 253.90 L 407.00 257.70 L 396.20 261.90 L 385.70 266.40 L 372.70 272.50 L 360.30 279.10 L 348.30 286.10 L 336.80 293.50 L 325.60 301.40 L 314.90 309.60 L 304.80 318.10 L 295.20 326.90 L 285.90 336.10 L 277.10 345.50 L 269.00 355.10 L 261.40 364.90 L 254.10 375.00 L 247.50 385.20 L 241.50 395.40 L 236.00 405.70 L 231.00 416.30 L 226.70 426.80 L 222.90 437.30 L 219.70 447.70 L 217.10 458.30 L 215.10 468.70 L 213.80 478.90 L 213.10 489.00 L 212.90 497.10 L 213.20 505.10 L 214.00 512.90 L 215.10 520.50 L 216.60 528.00 L 218.60 535.40 L 221.00 542.60 L 223.90 549.50 L 227.20 556.30 L 231.00 562.90 L 243.50 568.30 L 249.40 571.20 L 264.00 579.30 L 272.10 584.50 L 280.10 590.30 L 288.30 596.80 L 298.60 606.50 L 303.50 611.80 L 308.00 617.50 L 312.20 623.40 L 327.20 649.30 L 332.20 657.30 L 336.70 663.60 L 342.90 670.70 L 346.00 673.40 L 349.30 675.80 L 352.90 677.90 L 356.60 679.50 L 365.00 681.80 L 369.90 682.60 L 377.80 683.30 L 387.40 683.50 L 398.00 682.80 L 407.90 680.70 L 420.30 676.80 L 422.50 676.30 L 426.70 676.50 L 428.60 677.20 L 430.80 678.40 L 433.20 680.30 L 438.10 685.70 L 446.10 697.20 L 455.60 712.20 L 458.80 716.20 L 462.30 719.60 L 465.90 722.50 L 469.90 725.00 L 474.00 727.00 L 478.30 728.50 L 482.70 729.70 L 492.00 730.80 L 501.80 730.50 L 508.40 729.60 L 515.10 728.20 L 528.80 724.00 L 542.20 718.50 L 552.00 713.60 L 561.40 708.30 L 570.30 702.80 L 578.40 697.30 L 594.80 684.60 L 597.40 683.10 L 602.40 681.30 L 605.70 680.80 L 609.20 680.70 L 612.70 681.20 L 618.00 682.40 L 636.40 688.10 L 645.90 690.10 L 651.20 690.70 L 656.50 690.90 L 662.30 690.60 L 668.70 689.70 L 678.50 687.30 L 689.90 683.00 L 695.40 680.30 L 708.00 673.00 L 721.80 663.40 L 729.10 657.70 L 745.40 643.30 L 749.20 633.80 L 757.10 616.80 L 763.30 605.20 L 770.40 592.90 L 779.50 578.10 L 786.10 568.10 L 802.40 545.40 L 804.50 542.20 L 806.40 538.50 L 808.00 534.40 L 809.30 529.90 L 810.20 524.80 L 810.90 518.60 L 811.10 511.80 L 810.70 504.30 L 809.90 496.20 L 808.60 488.30 L 804.60 471.20 L 801.80 461.90 L 795.00 443.50 L 790.90 433.90 L 781.30 414.20 L 775.90 404.50 L 763.70 384.50 L 757.10 374.80 L 742.50 355.40 L 734.50 345.80 L 726.30 336.50 L 717.70 327.40 L 708.60 318.60 L 699.20 309.90 L 689.40 301.70 L 679.30 293.80 L 668.80 286.20 L 657.90 279.10 L 646.80 272.40 L 635.30 266.20 L 623.40 260.50 L 611.20 255.40 L 601.30 251.70 L 591.20 248.40 L 580.90 245.50 L 570.30 243.00 L 559.50 241.00 L 548.70 239.40 L 537.60 238.30 L 526.40 237.70 L 514.80 237.60 L 503.00 238.00 Z M 516.90 572.70 L 498.80 571.90 L 481.80 569.60 L 465.40 565.90 L 450.30 561.00 L 443.00 558.00 L 436.20 554.80 L 423.80 547.60 L 417.90 543.50 L 412.60 539.30 L 407.80 534.90 L 403.40 530.30 L 403.70 522.80 L 404.50 517.20 L 406.00 511.80 L 408.00 506.40 L 410.50 501.20 L 413.50 496.20 L 417.10 491.30 L 421.10 486.40 L 425.50 482.00 L 430.40 477.70 L 435.70 473.50 L 441.50 469.50 L 453.90 462.60 L 460.70 459.40 L 467.90 456.50 L 482.80 451.70 L 499.10 448.10 L 507.40 446.80 L 524.70 445.30 L 533.80 445.10 L 543.00 445.30 L 560.50 446.90 L 577.30 449.90 L 585.30 451.90 L 600.40 456.80 L 607.70 459.80 L 620.90 466.50 L 626.90 470.20 L 632.80 474.30 L 638.10 478.50 L 642.90 482.90 L 647.30 487.50 L 647.00 495.00 L 646.20 500.60 L 644.70 506.00 L 642.70 511.40 L 640.20 516.60 L 637.20 521.60 L 633.60 526.50 L 629.60 531.40 L 625.20 535.80 L 620.30 540.10 L 615.00 544.30 L 609.20 548.30 L 603.20 551.80 L 590.00 558.40 L 582.80 561.30 L 567.90 566.10 L 559.90 568.10 L 543.30 571.00 L 534.80 571.90 L 516.90 572.70 Z" fill="#e1526c" fill-rule="nonzero" group-id="1,2" node-id="40" stroke="#e1526c" stroke-linecap="butt" stroke-width="4.72" target-height="493.19998" target-width="598.19995" target-x="212.9" target-y="237.6"></path><path d="M 534.30 447.20 L 551.90 448.00 L 568.50 450.20 L 584.60 453.80 L 599.20 458.60 L 613.00 464.60 L 625.10 471.60 L 630.80 475.60 L 636.00 479.70 L 640.70 484.00 L 645.00 488.50 L 644.50 483.20 L 643.60 478.10 L 642.20 473.00 L 640.30 468.10 L 637.90 463.20 L 635.10 458.60 L 631.90 454.10 L 628.30 449.80 L 624.20 445.50 L 619.60 441.30 L 613.60 436.60 L 607.10 432.20 L 600.00 428.00 L 592.20 424.10 L 584.20 420.70 L 575.90 417.70 L 567.00 415.10 L 557.60 412.80 L 548.20 411.10 L 538.40 409.80 L 528.30 409.10 L 517.80 408.80 L 509.10 409.00 L 500.60 409.50 L 484.30 411.70 L 476.20 413.30 L 461.10 417.40 L 446.90 422.80 L 434.00 429.10 L 422.40 436.50 L 417.20 440.60 L 412.40 444.80 L 408.10 449.10 L 404.10 453.80 L 400.60 458.60 L 397.60 463.60 L 395.10 468.60 L 393.10 473.90 L 391.70 479.20 L 390.80 484.70 L 390.50 490.30 L 390.80 495.70 L 391.50 500.90 L 392.70 506.00 L 394.40 511.00 L 396.60 515.80 L 399.30 520.60 L 402.50 525.40 L 406.30 530.10 L 406.50 522.80 L 407.40 517.30 L 408.80 512.00 L 410.80 506.70 L 413.30 501.70 L 416.30 496.80 L 419.80 492.00 L 423.80 487.30 L 428.10 483.00 L 432.90 478.80 L 438.10 474.80 L 443.90 470.90 L 456.00 464.10 L 462.70 461.10 L 469.80 458.20 L 484.40 453.60 L 500.30 450.10 L 508.50 448.80 L 525.40 447.40 L 534.20 447.20 Z" fill="#f49a4a" fill-rule="nonzero" group-id="1,2" node-id="42" stroke="none" target-height="121.29999" target-width="254.5" target-x="390.5" target-y="408.8"></path><g node-id="78"><path d="M 653.10 359.20 L 707.70 365.70" fill="none" group-id="1,2,3" node-id="46" stroke="#f6b068" stroke-linecap="round" stroke-width="14.15" target-height="6.5" target-width="54.600037" target-x="653.1" target-y="359.2"></path><path d="M 376.70 629.10 L 395.50 645.30" fill="none" group-id="1,2,3" node-id="48" stroke="#f6b068" stroke-linecap="round" stroke-width="14.15" target-height="16.200012" target-width="18.799988" target-x="376.7" target-y="629.1"></path><path d="M 579.90 362.50 L 561.40 379.20" fill="none" group-id="1,2,3" node-id="50" stroke="#b472aa" stroke-linecap="round" stroke-width="14.15" target-height="16.700012" target-width="18.5" target-x="561.4" target-y="362.5"></path><path d="M 653.10 633.10 L 657.10 657.60" fill="none" group-id="1,2,3" node-id="52" stroke="#f5af65" stroke-linecap="butt" stroke-width="14.15" target-height="24.5" target-width="4" target-x="653.1" target-y="633.1"></path><path d="M 414.50 338.00 L 418.60 362.60" fill="none" group-id="1,2,3" node-id="54" stroke="#b472aa" stroke-linecap="round" stroke-width="14.15" target-height="24.600006" target-width="4.100006" target-x="414.5" target-y="338"></path><path d="M 244.20 499.60 L 241.90 524.40" fill="none" group-id="1,2,3" node-id="56" stroke="#ffffff" stroke-linecap="round" stroke-width="14.15" target-height="24.800018" target-width="2.300003" target-x="241.9" target-y="499.6"></path><path d="M 733.00 468.30 L 746.60 500.20" fill="none" group-id="1,2,3" node-id="58" stroke="#7dbcc0" stroke-linecap="round" stroke-width="14.15" target-height="31.900024" target-width="13.599976" target-x="733" target-y="468.3"></path><path d="M 488.30 299.00 L 522.70 275.70" fill="none" group-id="1,2,3" node-id="60" stroke="#7dbcc0" stroke-linecap="round" stroke-width="14.15" target-height="23.299988" target-width="34.400024" target-x="488.3" target-y="275.7"></path><path d="M 339.30 555.10 L 380.20 572.70" fill="none" group-id="1,2,3" node-id="62" stroke="#b472aa" stroke-linecap="round" stroke-width="14.15" target-height="17.600037" target-width="40.900024" target-x="339.3" target-y="555.1"></path><path d="M 525.60 621.60 L 498.40 652.80" fill="none" group-id="1,2,3" node-id="64" stroke="#7dbcc0" stroke-linecap="round" stroke-width="14.15" target-height="31.200012" target-width="27.199982" target-x="498.4" target-y="621.6"></path><path d="M 647.40 583.90 L 679.50 583.90" fill="none" group-id="1,2,3" node-id="66" stroke="#ffffff" stroke-linecap="round" stroke-width="14.15" target-height="0" target-width="32.099976" target-x="647.4" target-y="583.9"></path><path d="M 320.80 364.30 L 339.30 338.00" fill="none" group-id="1,2,3" node-id="68" stroke="#ffffff" stroke-linecap="round" stroke-width="14.15" target-height="26.299988" target-width="18.5" target-x="320.8" target-y="338"></path><path d="M 296.60 445.50 L 306.20 473.60" fill="none" group-id="1,2,3" node-id="70" stroke="#efa9b3" stroke-linecap="round" stroke-width="14.15" target-height="28.100006" target-width="9.600006" target-x="296.6" target-y="445.5"></path><path d="M 587.10 279.60 L 608.80 299.90" fill="none" group-id="1,2,3" node-id="72" stroke="#efa9b3" stroke-linecap="round" stroke-width="14.15" target-height="20.299988" target-width="21.700012" target-x="587.1" target-y="279.6"></path><path d="M 495.90 698.30 L 524.10 688.90" fill="none" group-id="1,2,3" node-id="74" stroke="#efa9b3" stroke-linecap="round" stroke-width="14.15" target-height="9.399963" target-width="28.199982" target-x="495.9" target-y="688.9"></path></g></g></g></svg>